<svg id="Layer_1" height="512" viewBox="0 0 512 512" width="512" xmlns="http://www.w3.org/2000/svg" data-name="Layer 1"><path d="m482.95 163.77v24.99a87.162 87.162 0 0 1 -7.01 34.23 86.873 86.873 0 0 0 -6.62 25.98l-13.89 197.95a10.836 10.836 0 0 1 -21.62 0l-13.89-197.95a87.174 87.174 0 0 0 -6.62-25.98 87.056 87.056 0 0 1 -7.01-34.23v-24.99z" fill="#00acea"/><path d="m472.23 134.75v.14h-55.22v-.14-79.75h55.22z" fill="#fedb41"/><path d="m372.22 217.53-38.38 21.44a19.5 19.5 0 0 0 0 34.06l38.38 21.44c-8.16 22.37-23.44 42.82-44.98 59.65-32.97 25.75-76.72 39.93-123.19 39.93s-90.21-14.18-123.18-39.93c-33.42-26.11-51.82-60.95-51.82-98.12s18.4-72.01 51.82-98.12c32.97-25.75 76.72-39.93 123.18-39.93s90.22 14.18 123.19 39.93c21.54 16.83 36.82 37.28 44.98 59.65z" fill="#00efd1"/><g fill="#fedb41"><path d="m270.95 304.75a23.1 23.1 0 1 1 -23.1 23.1 23.1 23.1 0 0 1 23.1-23.1z"/><path d="m260.68 161.06a23.1 23.1 0 1 1 -23.09 23.09 23.1 23.1 0 0 1 23.09-23.09z"/><path d="m199.1 325.28a23.1 23.1 0 1 1 -23.1 23.1 23.1 23.1 0 0 1 23.1-23.1z"/><path d="m188.83 140.53a23.1 23.1 0 1 1 -23.09 23.09 23.1 23.1 0 0 1 23.09-23.09z"/><path d="m127.25 304.75a23.1 23.1 0 1 1 -23.1 23.1 23.1 23.1 0 0 1 23.1-23.1z"/><path d="m116.98 161.06a23.1 23.1 0 1 1 -23.09 23.09 23.1 23.1 0 0 1 23.09-23.09z"/><path d="m75.93 232.91a23.09 23.09 0 1 1 -23.1 23.09 23.093 23.093 0 0 1 23.1-23.09z"/></g><path d="m482.95 134.89v28.88h-76.66v-28.88h10.72 55.22z" fill="#00efd1"/></svg>