<?xml version="1.0" encoding="iso-8859-1"?>
<!-- Generator: Adobe Illustrator 19.0.0, SVG Export Plug-In . SVG Version: 6.00 Build 0)  -->
<svg version="1.1" id="Capa_1" xmlns="http://www.w3.org/2000/svg" xmlns:xlink="http://www.w3.org/1999/xlink" x="0px" y="0px"
	 viewBox="0 0 512 512" style="enable-background:new 0 0 512 512;" xml:space="preserve">
<path style="fill:#6B962A;" d="M264.707,94.041h-17.415V76.626C247.371,46.498,261.547,18.138,285.605,0l10.449,13.932
	c-19.688,14.838-31.286,38.043-31.347,62.694V94.041z"/>
<rect x="3.483" y="407.51" style="fill:#DE4C3C;" width="452.789" height="104.49"/>
<rect x="55.728" y="337.85" style="fill:#87CED9;" width="452.789" height="69.66"/>
<path style="fill:#DE4C3C;" d="M290.299,268.19L290.299,268.19c-10.806,0-21.177-4.293-28.822-11.938L256,250.776l-5.477,5.477
	c-7.645,7.645-18.016,11.938-28.822,11.938l0,0c-20.288,0-37.494-14.916-40.359-35.004l-1.071-7.497
	c-1.724-12.077-6.661-23.475-14.28-33.001l0,0c-15.012-18.765-23.188-42.075-23.188-66.107l0,0
	c0-32.401,26.262-58.662,58.662-58.662h5.721c19.618,0,37.93,9.805,48.814,26.122l0,0c10.884-16.318,29.196-26.122,48.814-26.122
	h5.721c32.401,0,58.662,26.262,58.662,58.662l0,0c0,24.033-8.176,47.343-23.188,66.107l0,0c-7.619,9.526-12.556,20.924-14.28,33.001
	l-1.071,7.497C327.793,253.275,310.587,268.19,290.299,268.19z"/>
<path style="fill:#6B962A;" d="M256,67.918h-17.415c-33.663,0-60.952-27.289-60.952-60.952h17.415
	C228.711,6.966,256,34.255,256,67.918z"/>
<rect x="20.898" y="268.19" style="fill:#4398D1;" width="452.789" height="69.66"/>
<g>
	<rect x="47.02" y="268.19" style="fill:#126099;" width="17.415" height="69.66"/>
	<rect x="81.85" y="268.19" style="fill:#126099;" width="17.415" height="69.66"/>
	<rect x="395.32" y="268.19" style="fill:#126099;" width="17.415" height="69.66"/>
	<rect x="430.15" y="268.19" style="fill:#126099;" width="17.415" height="69.66"/>
	<rect x="134.095" y="294.313" style="fill:#126099;" width="34.83" height="17.415"/>
	<rect x="186.34" y="294.313" style="fill:#126099;" width="60.952" height="17.415"/>
	<rect x="264.707" y="294.313" style="fill:#126099;" width="17.415" height="17.415"/>
	<rect x="299.537" y="294.313" style="fill:#126099;" width="60.952" height="17.415"/>
</g>
<g>
	<rect x="116.68" y="433.633" style="fill:#5C3724;" width="156.735" height="17.415"/>
	<rect x="290.83" y="433.633" style="fill:#5C3724;" width="52.245" height="17.415"/>
	<rect x="142.803" y="468.463" style="fill:#5C3724;" width="69.66" height="17.415"/>
	<rect x="229.878" y="468.463" style="fill:#5C3724;" width="87.075" height="17.415"/>
</g>
<rect x="55.728" y="407.51" style="fill:#C74436;" width="400.544" height="26.122"/>
<g>
	<rect x="29.605" y="407.51" style="fill:#5C3724;" width="17.415" height="104.49"/>
	<rect x="412.735" y="407.51" style="fill:#5C3724;" width="17.415" height="104.49"/>
</g>
<rect x="55.728" y="337.85" style="fill:#6CBBC7;" width="417.959" height="26.122"/>
<g>
	<rect x="81.85" y="337.85" style="fill:#3E8CC7;" width="17.415" height="69.66"/>
	<rect x="464.98" y="337.85" style="fill:#3E8CC7;" width="17.415" height="69.66"/>
	<rect x="334.367" y="363.973" style="fill:#3E8CC7;" width="60.952" height="17.415"/>
	<rect x="282.122" y="363.973" style="fill:#3E8CC7;" width="34.83" height="17.415"/>
	<rect x="221.17" y="363.973" style="fill:#3E8CC7;" width="43.537" height="17.415"/>
	<rect x="151.51" y="363.973" style="fill:#3E8CC7;" width="52.245" height="17.415"/>
</g>
<path style="fill:#C74436;" d="M337.319,74.432c-22.474,109.993-106.292,152.651-153.321,168.142
	c8.29,20.854,31.913,31.033,52.767,22.744c5.155-2.046,9.839-5.137,13.758-9.065l5.477-5.477l5.477,5.477
	c15.926,15.917,41.735,15.917,57.652-0.009c6.235-6.235,10.275-14.324,11.529-23.057l1.071-7.497
	c1.733-12.077,6.661-23.475,14.28-33.001c15.012-18.765,23.188-42.075,23.188-66.107C369.189,104.594,356.885,84.463,337.319,74.432
	z"/>
<g>
</g>
<g>
</g>
<g>
</g>
<g>
</g>
<g>
</g>
<g>
</g>
<g>
</g>
<g>
</g>
<g>
</g>
<g>
</g>
<g>
</g>
<g>
</g>
<g>
</g>
<g>
</g>
<g>
</g>
</svg>
