<?xml version="1.0" encoding="iso-8859-1"?>
<!-- Generator: Adobe Illustrator 19.0.0, SVG Export Plug-In . SVG Version: 6.00 Build 0)  -->
<svg version="1.1" id="Layer_1" xmlns="http://www.w3.org/2000/svg" xmlns:xlink="http://www.w3.org/1999/xlink" x="0px" y="0px"
	 viewBox="0 0 512 512" style="enable-background:new 0 0 512 512;" xml:space="preserve">
<path style="fill:#F9D7C3;" d="M130.206,394.633c-73.014,11.674-83.345,76.97-84.387,104.8C45.562,506.303,51.077,512,57.952,512
	h72.254V394.633z"/>
<path style="opacity:0.08;enable-background:new    ;" d="M119.234,396.915C89.073,426.437,69.73,466.961,67.701,512h62.506V394.632
	C126.373,395.245,122.729,396.02,119.234,396.915z"/>
<path style="fill:#F9D7C3;" d="M381.794,394.633c73.014,11.674,83.345,76.97,84.387,104.8c0.257,6.87-5.258,12.567-12.133,12.567
	h-72.254V394.633z"/>
<path style="opacity:0.08;enable-background:new    ;" d="M392.766,396.915c30.162,29.523,49.505,70.046,51.533,115.085h-62.505
	V394.632C385.627,395.245,389.271,396.02,392.766,396.915z"/>
<path style="fill:#394049;" d="M428.056,512c0-95.024-77.032-172.056-172.056-172.056S83.944,416.976,83.944,512H428.056z"/>
<path style="fill:#F9D7C3;" d="M309.878,432.541c0,29.756-24.122,53.878-53.878,53.878s-53.879-24.122-53.879-53.878V369.73h107.757
	V432.541z"/>
<path style="opacity:0.1;enable-background:new    ;" d="M256,339.944c-43.928,0-84.004,16.471-114.409,43.564
	c28.778,30.207,69.395,49.033,114.409,49.033l0,0c45.015,0,85.632-18.826,114.409-49.033
	C340.004,356.416,299.928,339.944,256,339.944z"/>
<path style="fill:#8D6A59;" d="M159.694,339.944v122.013c0,2.983-2.418,5.402-5.402,5.402h-81.19c-2.983,0-5.402-2.418-5.402-5.402
	V135.454c0-66.782,41.996-86.7,62.505-86.7C142.123,20.314,202.98,0,256.517,0c87.362,0,178.666,60.986,178.666,164.838v297.12
	c0,2.983-2.418,5.402-5.402,5.402h-81.19c-2.983,0-5.402-2.418-5.402-5.402V339.944H159.694z"/>
<g>
	<path style="opacity:0.2;fill:#F4C53D;enable-background:new    ;" d="M67.701,369.729h91.993v92.229
		c0,2.983-2.418,5.402-5.402,5.402h-81.19c-2.983,0-5.402-2.418-5.402-5.402L67.701,369.729L67.701,369.729z"/>
	<path style="opacity:0.2;fill:#F4C53D;enable-background:new    ;" d="M343.19,369.729h91.993v92.229
		c0,2.983-2.418,5.402-5.402,5.402h-81.19c-2.983,0-5.402-2.418-5.402-5.402v-92.229H343.19z"/>
</g>
<path style="fill:#F9D7C3;" d="M256,26.475L256,26.475c-91.474,0-165.627,74.154-165.627,165.627v51.242
	c0,91.473,74.154,165.627,165.627,165.627l0,0c91.473,0,165.627-74.154,165.627-165.627v-51.242
	C421.627,100.629,347.474,26.475,256,26.475z"/>
<g>
	<path style="fill:#394049;" d="M152.574,224.465c-4.142,0-7.5-3.357-7.5-7.5v-24.151c0-4.143,3.358-7.5,7.5-7.5s7.5,3.357,7.5,7.5
		v24.151C160.074,221.107,156.716,224.465,152.574,224.465z"/>
	<path style="fill:#394049;" d="M359.426,224.465c-4.142,0-7.5-3.357-7.5-7.5v-24.151c0-4.143,3.358-7.5,7.5-7.5s7.5,3.357,7.5,7.5
		v24.151C366.926,221.107,363.568,224.465,359.426,224.465z"/>
</g>
<g>
	<path style="fill:#EC8087;" d="M168.81,257.851h-32.464c-4.142,0-7.5-3.357-7.5-7.5s3.358-7.5,7.5-7.5h32.464
		c4.142,0,7.5,3.357,7.5,7.5C176.31,254.493,172.952,257.851,168.81,257.851z"/>
	<path style="fill:#EC8087;" d="M375.655,257.851H343.19c-4.142,0-7.5-3.357-7.5-7.5s3.358-7.5,7.5-7.5h32.464
		c4.142,0,7.5,3.357,7.5,7.5C383.155,254.493,379.797,257.851,375.655,257.851z"/>
</g>
<path style="fill:#394049;" d="M256,258.17c-9.76,0-19.075-4.701-24.917-12.575c-2.468-3.327-1.772-8.024,1.555-10.492
	s8.024-1.771,10.492,1.555c3.07,4.139,7.761,6.513,12.87,6.513c5.108,0,9.799-2.374,12.87-6.513
	c2.469-3.326,7.166-4.02,10.492-1.555c3.327,2.469,4.022,7.166,1.555,10.492C275.074,253.469,265.76,258.17,256,258.17z"/>
<path style="fill:#8D6A59;" d="M385.059,363.618V209.2c0-19.728-14.164-36.609-33.593-40.035l-12.686-2.237
	c-42.04-7.414-81.841-24.297-116.39-49.37l-51.014-37.023c-2.263-1.642-5.454-0.919-6.788,1.538L151.382,106.4
	c-12.645,23.294-30.058,43.66-51.104,59.771l-15.956,12.215c0,0,12.751-156.375,171.678-156.375
	c51.326,0,124.122,22.427,156.967,96.131c23.082,51.797,13.973,127.154,13.973,245.477h-41.881V363.618z"/>
<g style="opacity:0.1;">
	<path d="M364.956,141.234c-21.186,0-47.831-9.577-75.027-26.966c-24.387-15.594-46.447-35.859-59.01-54.212
		c-2.34-3.418-1.466-8.085,1.952-10.425c3.419-2.34,8.086-1.466,10.426,1.952c11.483,16.774,31.937,35.483,54.713,50.047
		c24.814,15.866,48.589,24.604,66.947,24.604c4.142,0,7.5,3.357,7.5,7.5C372.456,137.877,369.098,141.234,364.956,141.234z"/>
	<path d="M354.033,102.278c-0.477,0-0.959-0.045-1.445-0.14c-29.681-5.792-61.113-32.415-69.388-52.351
		c-1.588-3.825,0.226-8.214,4.051-9.802c3.825-1.59,8.214,0.227,9.802,4.052c5.751,13.854,31.98,38.221,58.408,43.378
		c4.065,0.794,6.718,4.732,5.925,8.798C360.687,99.794,357.548,102.278,354.033,102.278z"/>
</g>
<g>
</g>
<g>
</g>
<g>
</g>
<g>
</g>
<g>
</g>
<g>
</g>
<g>
</g>
<g>
</g>
<g>
</g>
<g>
</g>
<g>
</g>
<g>
</g>
<g>
</g>
<g>
</g>
<g>
</g>
</svg>
