<svg id="Capa_1" enable-background="new 0 0 497.48 497.48" height="512" viewBox="0 0 497.48 497.48" width="512" xmlns="http://www.w3.org/2000/svg"><g><path d="m362.204 112.546c7.685 0 15.318 1.337 22.516 4.03.35.131.7.263 1.05.395l.626.237c10.559 3.997 22.337 1.334 30.522-6.444 8.814-8.375 20.825-13.416 34.015-13.102 25.382.605 46.718 22.637 46.546 48.025-.073 10.739-3.697 20.632-9.754 28.569-5.571 7.3-7.637 16.713-5.117 25.544 14.514 50.863 14.514 104.829 0 155.692-2.52 8.831-.454 18.244 5.117 25.544 6.058 7.938 9.682 17.831 9.754 28.572.169 25.388-21.167 47.419-46.549 48.022-13.187.313-25.195-4.727-34.009-13.098-8.187-7.777-19.965-10.442-30.526-6.446l-.626.237c-88.296 33.423-185.763 33.423-274.059 0l-.626-.237c-10.561-3.995-22.339-1.33-30.526 6.446-8.813 8.372-20.821 13.412-34.009 13.098-25.382-.603-46.718-22.634-46.549-48.022.072-10.741 3.696-20.634 9.754-28.572 5.571-7.3 7.637-16.714 5.117-25.544-14.514-50.863-14.514-104.829 0-155.692 2.52-8.83.454-18.244-5.117-25.544-6.058-7.937-9.682-17.83-9.754-28.569-.171-25.387 21.166-47.42 46.547-48.024 13.19-.314 25.201 4.727 34.015 13.102 8.185 7.777 19.963 10.441 30.522 6.444l.626-.237c.35-.132.7-.264 1.05-.395 7.197-2.693 14.831-4.03 22.516-4.03h226.928z" fill="#c8effe"/><path d="m496.532 400.478c-.898.076-1.801.132-2.711.154-13.413.318-25.606-4.901-34.458-13.531-7.93-7.731-19.75-9.92-30.108-6.001l-.593.224c-71.64 27.118-149.314 32.216-223.231 15.324-22.421-5.124-38.615-24.691-39.825-47.658-1.493-28.335-2.829-66.078-.971-87.641 1.493-17.328 19.59-27.812 35.501-20.789 14.879 6.567 31.322 10.217 48.604 10.217 66.634 0 120.844-54.21 120.844-120.844 0-5.801-.42-11.505-1.214-17.09-2.047-.193-4.104-.297-6.166-.297h-192.812-14.542-19.574c-7.818 0-15.571 1.416-22.888 4.17-.226.085-.452.17-.677.255l-.627.238c-10.558 3.999-22.335 1.336-30.518-6.441-8.812-8.374-20.819-13.416-34.007-13.104-25.846.61-46.364 21.482-46.557 47.335-.082 11.005 3.567 21.152 9.754 29.26 5.571 7.3 7.636 16.713 5.116 25.544-14.489 50.776-14.514 104.644-.074 155.43 2.538 8.925.587 18.43-5.042 25.806-6.06 7.941-9.685 17.838-9.754 28.583-.163 25.387 21.174 47.412 46.554 48.011 13.187.312 25.195-4.729 34.007-13.102 8.185-7.776 19.961-10.441 30.52-6.444l.628.238c14.065 5.324 28.364 9.792 42.821 13.419-.003-.012-.006-.024-.009-.036 76.3 19.154 157.012 14.717 231.248-13.384l.594-.225c10.358-3.919 22.179-1.73 30.109 6.001 8.852 8.631 21.045 13.85 34.458 13.531 25.382-.603 46.718-22.634 46.549-48.022-.023-3.126-.353-6.176-.949-9.131z" fill="#99e6fc"/><circle cx="248.74" cy="129.933" fill="#62dbfb" r="95.843"/><path d="m238.655 129.933c0-37.518 21.573-69.996 52.976-85.734-12.903-6.466-27.477-10.11-42.892-10.11-52.933 0-95.843 42.91-95.843 95.843s42.91 95.843 95.843 95.843c15.415 0 29.989-3.648 42.892-10.114-31.403-15.736-52.976-48.211-52.976-85.728z" fill="#01d0fb"/><g><path d="m248.745 158.174c-2.325 0-4.607-1.08-6.067-3.085l-37.09-50.923c-2.438-3.349-1.701-8.04 1.646-10.479 3.35-2.439 8.041-1.7 10.479 1.646l33.024 45.342 23.561-14.347c3.535-2.154 8.151-1.034 10.307 2.505 2.154 3.537 1.032 8.151-2.506 10.307l-29.458 17.938c-1.215.74-2.562 1.096-3.896 1.096z" fill="#e5e1e5"/></g><g><path d="m360.468 406.201h-49.886c-3.437 0-6.55-2.164-7.746-5.386s-.251-6.894 2.353-9.137l35.093-30.253h-31.753c-4.143 0-7.5-3.357-7.5-7.5s3.357-7.5 7.5-7.5h49.886c3.437 0 6.55 2.165 7.746 5.387s.251 6.893-2.353 9.136l-35.093 30.253h31.753c4.143 0 7.5 3.357 7.5 7.5s-3.357 7.5-7.5 7.5zm-2.053-44.775h.01z" fill="#fee45a"/></g><g><path d="m433.47 310.346h-67.55c-4.243 0-7.94-2.57-9.418-6.549-1.478-3.978-.355-8.338 2.858-11.108l53.924-46.485h-54.218c-4.143 0-7.5-3.357-7.5-7.5s3.357-7.5 7.5-7.5h67.551c4.242 0 7.938 2.569 9.417 6.547 1.478 3.977.356 8.337-2.856 11.108l-53.926 46.487h54.219c4.143 0 7.5 3.357 7.5 7.5s-3.358 7.5-7.501 7.5zm-6.853-64.143h.01z" fill="#fee45a"/></g></g></svg>