<svg height="384pt" viewBox="-32 0 384 384" width="384pt" xmlns="http://www.w3.org/2000/svg"><path d="m112 16.03125h-96v48l104 164.640625 88 139.359375h96v-48l-104-164.640625zm0 0" fill="#cce4ff"/><path d="m184 100.03125-63.175781-100.03125h-120.824219v384h136v-100.03125l63.175781 100.03125h120.824219v-384h-136zm-80 251.96875h-72v-232.695312l72 114zm184-27.367188v27.367188h-71.175781l-80.824219-127.96875v-.023438l-97.230469-153.917968-6.769531-10.722656v-27.367188h71.175781l80.824219 127.96875v.023438l97.230469 153.929687zm0-292.632812v232.703125l-72-114v-118.703125zm0 0" fill="#007aff"/></svg>