<?xml version="1.0"?>
<svg xmlns="http://www.w3.org/2000/svg" xmlns:xlink="http://www.w3.org/1999/xlink" version="1.1" id="Capa_1" x="0px" y="0px" viewBox="0 0 512 512" style="enable-background:new 0 0 512 512;" xml:space="preserve" width="512px" height="512px" class=""><g><path style="fill:#5B6EA2;" d="M298.613,512H127.131c-23.144,0-41.905-18.762-41.905-41.905V310.407  c0-6.514,5.281-11.794,11.794-11.794h67.772c3.137,0,4.744-3.698,2.652-6.036c-5.193-5.805-8.352-13.467-8.352-21.869  c0-18.823,13.818-32.761,32.826-32.761s32.826,13.938,32.826,32.761c0,8.402-3.158,16.064-8.352,21.869  c-2.091,2.338-0.484,6.036,2.652,6.036h79.567V512H298.613z" data-original="#5B6EA2" class=""/><path style="fill:#86DBD5;" d="M512,298.613v171.482C512,493.238,493.238,512,470.095,512H298.613v-79.567  c0-3.137-3.698-4.743-6.036-2.652c-5.805,5.193-13.467,8.352-21.869,8.352c-18.823,0-32.761-13.818-32.761-32.826  s13.938-32.826,32.761-32.826c8.402,0,16.064,3.159,21.869,8.352c2.338,2.091,6.036,0.484,6.036-2.652v-79.567L512,298.613  L512,298.613z" data-original="#86DBD5" class=""/><path style="fill:#609AD6;" d="M432.433,298.613H512V127.131c0-23.144-18.762-41.905-41.905-41.905H310.407  c-6.514,0-11.794,5.281-11.794,11.794v67.772c0,3.137,3.698,4.743,6.035,2.652c5.805-5.193,13.467-8.352,21.869-8.352  c18.823,0,32.76,13.818,32.76,32.826s-13.938,32.826-32.76,32.826c-8.402,0-16.065-3.159-21.869-8.352  c-2.338-2.091-6.035-0.484-6.035,2.652v79.567h79.567c3.137,0,4.743,3.698,2.652,6.036c-5.193,5.805-8.352,13.467-8.352,21.869  c0,18.823,13.818,32.76,32.826,32.76s32.826-13.938,32.826-32.76c0-8.402-3.159-16.065-8.352-21.869  C427.69,302.311,429.297,298.613,432.433,298.613z" data-original="#609AD6" class=""/><path style="fill:#7E94D0" d="M213.387,79.567V9.949c0-5.494-4.454-9.949-9.949-9.949H41.905C18.762,0,0,18.762,0,41.905v159.687  c0,6.514,5.28,11.794,11.794,11.794h67.772c3.141,0,4.737-3.703,2.644-6.045c-5.188-5.804-8.343-13.462-8.343-21.86  c0-18.823,13.818-32.76,32.826-32.76s32.826,13.938,32.826,32.76c0,8.398-3.155,16.056-8.343,21.86  c-2.093,2.342-0.497,6.045,2.644,6.045h69.618c5.495,0,9.949-4.454,9.949-9.949V133.82c0-3.141,3.703-4.737,6.045-2.644  c5.803,5.188,13.462,8.343,21.86,8.343c18.823,0,32.76-13.818,32.76-32.826s-13.938-32.826-32.76-32.826  c-8.398,0-16.056,3.155-21.86,8.343C217.09,84.304,213.387,82.708,213.387,79.567z" data-original="#F7B96D" class="active-path" data-old_color="#F7B96D"/><g>
	<ellipse style="fill:#FFFFFF;" cx="46.26" cy="104.5" rx="22.688" ry="18.07" data-original="#FFFFFF"/>
	<ellipse style="fill:#FFFFFF;" cx="169.23" cy="104.5" rx="22.688" ry="18.07" data-original="#FFFFFF"/>
</g><g>
	<path style="fill:#495059;" d="M50.048,90.671c-4.143,0-7.5-3.357-7.5-7.5v-9.738c0-4.143,3.357-7.5,7.5-7.5   c4.142,0,7.5,3.357,7.5,7.5v9.738C57.548,87.313,54.19,90.671,50.048,90.671z" data-original="#495059"/>
	<path style="fill:#495059;" d="M107.743,107.06L107.743,107.06c-9.078,0-16.438-7.359-16.438-16.438v-11.95   c0-2.478,2.009-4.487,4.487-4.487h23.901c2.478,0,4.487,2.009,4.487,4.487v11.951C124.181,99.701,116.821,107.06,107.743,107.06z" data-original="#495059"/>
	<path style="fill:#495059;" d="M165.439,90.671c-4.143,0-7.5-3.357-7.5-7.5v-9.738c0-4.143,3.357-7.5,7.5-7.5s7.5,3.357,7.5,7.5   v9.738C172.939,87.313,169.581,90.671,165.439,90.671z" data-original="#495059"/>
</g><path style="opacity:0.1;enable-background:new    ;" d="M11.794,213.387h67.772c3.141,0,4.737-3.703,2.644-6.045  c-5.188-5.804-8.343-13.462-8.343-21.86c0-0.592,0.014-1.179,0.041-1.76C31.875,125.206,32.225,32.146,39.994,0.048  C17.738,1.048,0,19.403,0,41.905v159.688C0,208.107,5.281,213.387,11.794,213.387z" data-original="#000000" class=""/><path style="opacity:0.1;enable-background:new    ;" d="M298.613,97.02v67.772c0,3.137,3.698,4.743,6.035,2.652  c5.805-5.193,13.467-8.352,21.869-8.352c8.817,0,16.562,3.032,22.305,8.21c-1.402-29.445,1.529-58.138,7.75-82.077h-46.165  C303.893,85.226,298.613,90.507,298.613,97.02z" data-original="#000000" class=""/><path style="opacity:0.1;enable-background:new    ;" d="M380.832,304.648c-5.193,5.805-8.352,13.467-8.352,21.869  c0,18.823,13.818,32.76,32.826,32.76c16.913,0,29.707-11.039,32.324-26.73c-47.216-21.72-73.096-70.043-83.563-122.197  c-5.708,8.866-15.65,14.394-27.55,14.394c-8.402,0-16.065-3.159-21.869-8.352c-2.338-2.091-6.035-0.484-6.035,2.652v79.567h79.567  C381.316,298.613,382.923,302.311,380.832,304.648z" data-original="#000000" class=""/><g>
	<ellipse style="fill:#FFFFFF;" cx="351.29" cy="425.19" rx="19.932" ry="15.873" data-original="#FFFFFF"/>
	<ellipse style="fill:#FFFFFF;" cx="459.32" cy="425.19" rx="19.932" ry="15.873" data-original="#FFFFFF"/>
</g><g>
	<path style="fill:#495059;" d="M362.904,416.855c-4.143,0-7.5-3.358-7.5-7.5v-7.039c0-4.143,3.357-7.5,7.5-7.5s7.5,3.357,7.5,7.5   v7.039C370.404,413.498,367.047,416.855,362.904,416.855z" data-original="#495059"/>
	<path style="fill:#495059;" d="M447.708,416.855c-4.143,0-7.5-3.358-7.5-7.5v-7.039c0-4.143,3.357-7.5,7.5-7.5s7.5,3.357,7.5,7.5   v7.039C455.208,413.498,451.851,416.855,447.708,416.855z" data-original="#495059"/>
	<path style="fill:#495059;" d="M405.307,422.26c-6.452,0-12.588-2.794-16.833-7.665c-2.722-3.122-2.397-7.859,0.726-10.581   c3.122-2.724,7.86-2.397,10.581,0.726c1.396,1.602,3.411,2.521,5.526,2.521s4.129-0.918,5.524-2.52   c2.72-3.124,7.459-3.449,10.581-0.728c3.123,2.721,3.449,7.458,0.727,10.581C417.896,419.466,411.76,422.26,405.307,422.26z" data-original="#495059"/>
</g><path style="opacity:0.1;enable-background:new    ;" d="M259.378,512c-89.272-29.222-133.079-148.209-109.534-213.387H97.02  c-6.514,0-11.794,5.28-11.794,11.794v159.687c0,23.144,18.762,41.905,41.905,41.905h132.247V512z" data-original="#000000" class=""/><path style="opacity:0.1;enable-background:new    ;" d="M439.815,512c-97.58-37.08-103.776-151.648-96.818-213.387h-44.384v79.567  c0,3.137-3.698,4.743-6.036,2.652c-5.805-5.193-13.467-8.352-21.869-8.352c-18.823,0-32.761,13.818-32.761,32.826  s13.938,32.826,32.761,32.826c8.402,0,16.064-3.159,21.869-8.352c2.338-2.091,6.036-0.484,6.036,2.652V512H439.815z" data-original="#000000" class=""/></g> </svg>
